<?xml version="1.0" encoding="utf-8"?><svg xmlns="http://www.w3.org/2000/svg" xmlns:xlink="http://www.w3.org/1999/xlink" width="1536" height="754" preserveAspectRatio="xMidYMid" viewBox="0 0 1536 754" style="z-index:1;margin-right:-2px;display:block;background-repeat-y:initial;background-repeat-x:initial;background-color:rgb(255, 255, 255);animation-play-state:paused" ><g transform="translate(768,377) scale(1,1) translate(-768,-377)" style="transform:matrix(1, 0, 0, 1, 0, 0);animation-play-state:paused" ><linearGradient id="lg-0.4755048336185126" x1="0" x2="1" y1="0" y2="0" style="animation-play-state:paused" ><stop stop-color="#ff00ff" offset="0" style="animation-play-state:paused" ></stop>

  
<stop stop-color="#00ffff" offset="1" style="animation-play-state:paused" ></stop></linearGradient>
<path d="M 0 0 L 0 722.177 Q 153.6 697.366 307.2 680.72 T 614.4 502.401 T 921.6 450.715 T 1228.8 419.888 T 1536 356.632 L 1536 0 Z" fill="url(#lg-0.4755048336185126)" opacity="0.4" style="opacity:0.4;animation-play-state:paused" ></path>
<path d="M 0 0 L 0 723.701 Q 153.6 611.725 307.2 581.263 T 614.4 527.266 T 921.6 454.215 T 1228.8 400.664 T 1536 294.821 L 1536 0 Z" fill="url(#lg-0.4755048336185126)" opacity="0.4" style="opacity:0.4;animation-play-state:paused" ></path>
<path d="M 0 0 L 0 749.701 Q 153.6 627.075 307.2 596.715 T 614.4 504.794 T 921.6 491.43 T 1228.8 399.393 T 1536 310.419 L 1536 0 Z" fill="url(#lg-0.4755048336185126)" opacity="0.4" style="opacity:0.4;animation-play-state:paused" ></path>
<path d="M 0 0 L 0 676.589 Q 153.6 662.566 307.2 633.692 T 614.4 511.298 T 921.6 458.494 T 1228.8 402.813 T 1536 346.711 L 1536 0 Z" fill="url(#lg-0.4755048336185126)" opacity="0.4" style="opacity:0.4;animation-play-state:paused" ></path>
<path d="M 0 0 L 0 705.512 Q 153.6 660.702 307.2 637.304 T 614.4 521.23 T 921.6 433.887 T 1228.8 401.847 T 1536 282.217 L 1536 0 Z" fill="url(#lg-0.4755048336185126)" opacity="0.4" style="opacity:0.4;animation-play-state:paused" ></path></g></svg>